<?xml version="1.0" encoding="UTF-8"?> <svg xmlns="http://www.w3.org/2000/svg" width="160" height="40" viewBox="0 0 160 40" fill="none"><g clip-path="url(#clip0_81_470)"><path d="M18.6619 35.3149L27.2292 30.3188L27.2283 30.317L30.2524 28.5537V30.6118L22.1986 35.3078H22.1947L18.1517 37.6654L14.1088 35.3078H14.1049L6.0511 30.6118V28.5537L9.07521 30.317L9.07424 30.3188L17.6416 35.3149L18.1513 35.6123L18.1517 35.612L18.1522 35.6123L18.6619 35.3149ZM18.1517 40.0384L20.1865 38.852L23.2144 37.0863L23.2135 37.0845L32.2919 31.791V27.3644L36.3064 25.0235V10.6551V8.28677V8.28607C31.5913 5.5382 26.8815 2.78848 22.1662 0.0388184L18.1517 2.37996L14.1372 0.0388184C9.42193 2.78848 4.71222 5.5382 -0.00292969 8.28607V8.28677V10.6551V25.0235L4.01156 27.3644V31.791L13.09 37.0845L13.0891 37.0863L16.1169 38.852L18.1517 40.0384ZM18.1517 4.75303C22.185 7.105 26.2187 9.45479 30.2524 11.8068V26.1852L26.2134 28.5403H26.2094L18.152 33.239L18.1517 33.2389L18.1515 33.239L10.094 28.5403H10.0901L6.0511 26.1852V11.8068C10.0848 9.45479 14.1184 7.105 18.1517 4.75303ZM16.1169 3.56647C12.0816 5.91957 8.04825 8.27372 4.01156 10.6276V24.9959L2.03661 23.8442V9.46589C6.07001 7.11392 10.1037 4.76402 14.1372 2.41195L16.1169 3.56647ZM20.1865 3.56647L22.1662 2.41195C26.1998 4.76402 30.2335 7.11392 34.2669 9.46589V23.8442L32.2919 24.9959V10.6276C28.2552 8.27372 24.2218 5.91957 20.1865 3.56647Z" fill="#333333"></path><path fill-rule="evenodd" clip-rule="evenodd" d="M19.2276 13.2287V19.1742C19.2276 19.4996 19.2579 19.8166 19.3152 20.1214C19.3738 20.4333 19.4629 20.7388 19.5781 21.0328C19.6955 21.3332 19.8399 21.6193 20.0068 21.8859C20.1759 22.1562 20.3709 22.4107 20.5865 22.6443C20.7966 22.8718 21.0273 23.0806 21.2746 23.2663C21.5197 23.4506 21.7828 23.6136 22.06 23.7513C22.2908 23.8661 22.5324 23.964 22.7819 24.0425C22.9344 24.0907 23.0904 24.1318 23.2492 24.1652V16.0286H25.4009V25.3036C25.4009 25.3755 25.3929 25.4497 25.3782 25.5242C25.3648 25.5961 25.3426 25.6683 25.3144 25.7379C25.2866 25.8063 25.2515 25.8726 25.2111 25.9335C25.1689 25.9983 25.121 26.0572 25.0704 26.1082C25.0182 26.16 24.9604 26.2084 24.8993 26.2498C24.8372 26.2918 24.7715 26.3278 24.7049 26.3556C24.6357 26.3842 24.5642 26.4061 24.4902 26.4208C24.4165 26.4349 24.3435 26.443 24.2729 26.443C23.9123 26.443 23.5547 26.415 23.204 26.3612C22.8493 26.3068 22.4986 26.2245 22.1567 26.1174C21.8111 26.0093 21.4755 25.8749 21.1541 25.7181C20.8287 25.5592 20.5163 25.3761 20.2207 25.1718C19.9436 24.9805 19.6793 24.7694 19.4311 24.5406C19.185 24.3139 18.9519 24.0673 18.7352 23.8038C18.579 23.6136 18.434 23.4185 18.302 23.2209L18.152 22.9862L18.0023 23.2204C17.87 23.4185 17.7248 23.6136 17.5685 23.8038C17.3519 24.0673 17.1188 24.3139 16.8727 24.5406C16.6247 24.7688 16.3601 24.9805 16.0834 25.1718C15.7875 25.3761 15.4751 25.5592 15.1494 25.7181C14.828 25.8751 14.4924 26.0093 14.1471 26.1174C13.8049 26.2245 13.4545 26.3068 13.0997 26.3612C12.749 26.415 12.3917 26.443 12.0312 26.443C11.96 26.443 11.8865 26.4349 11.8131 26.4201C11.7418 26.4066 11.6704 26.3842 11.6014 26.3556C11.5323 26.3268 11.4661 26.2911 11.4063 26.251C11.3419 26.2072 11.2841 26.1594 11.2344 26.1092C11.1841 26.0585 11.1366 26.0001 11.0945 25.9363C11.0538 25.8764 11.0184 25.8098 10.9894 25.7389C10.9611 25.6703 10.9394 25.5982 10.9248 25.5232C10.9109 25.449 10.9028 25.375 10.9028 25.3036V16.0286H13.0545V24.1652C13.2134 24.132 13.3691 24.091 13.5216 24.0428C13.7711 23.9642 14.013 23.8661 14.244 23.7513C14.5212 23.6136 14.7843 23.4506 15.0295 23.2663C15.2767 23.0806 15.5074 22.8718 15.7175 22.6443C15.9331 22.4107 16.128 22.1562 16.2973 21.8859C16.4642 21.6193 16.6085 21.3332 16.726 21.0328C16.8411 20.7388 16.9302 20.4333 16.9888 20.1214C17.0461 19.8166 17.0764 19.4996 17.0764 19.1742V13.2287H10.9046V11.0552H25.3994V13.2287H19.2276Z" fill="#333333"></path><path d="M55.4873 15.4933H51.1214V26.935H48.4866V15.4933H44.1206V13.1427H55.4873V15.4933ZM68.7577 24.5844V26.935H59.2759V13.1427H68.5846V15.4933H61.93V18.815H67.6807V20.9908H61.93V24.5844H68.7577ZM76.643 13.1427H79.3355L84.3555 26.935H81.6244L80.4895 23.4966H75.4763L74.3351 26.935H71.604L76.643 13.1427ZM79.8678 21.6123L77.9894 15.9207L76.1013 21.6123H79.8678ZM99.0876 26.935V17.8826L95.5871 24.6234H94.1063L90.6057 17.8826V26.935H87.9516V13.1427H90.7981L94.837 20.9908L98.9145 13.1427H101.742V26.935H99.0876ZM111.358 13.1817H113.82L115.378 17.7468L116.955 13.1817H119.397L117.051 19.4561L118.782 23.8464L122.648 13.1427H125.532L120.07 26.935H117.782L115.378 21.1461L112.993 26.935H110.704L105.261 13.1427H108.108L111.992 23.8464L113.685 19.4561L111.358 13.1817ZM129.032 26.935V13.1427H131.687V26.935H129.032ZM144.765 16.7559C144.675 16.6653 144.512 16.5422 144.274 16.3869C144.037 16.2314 143.749 16.0825 143.409 15.94C143.069 15.7977 142.701 15.6713 142.303 15.5612C141.906 15.4513 141.502 15.3962 141.091 15.3962C140.373 15.3962 139.832 15.5321 139.466 15.801C139.101 16.0728 138.918 16.4516 138.918 16.9437C138.918 17.3161 139.034 17.6139 139.264 17.8308C139.495 18.051 139.841 18.2387 140.303 18.391C140.764 18.5464 141.342 18.7148 142.034 18.896C142.931 19.1128 143.71 19.3817 144.371 19.6956C145.031 20.0129 145.537 20.424 145.89 20.9325C146.243 21.4439 146.419 22.1175 146.419 22.9527C146.419 23.6876 146.284 24.3158 146.015 24.837C145.746 25.3615 145.374 25.7823 144.899 26.1028C144.425 26.4268 143.887 26.6631 143.284 26.8088C142.681 26.9577 142.04 27.032 141.361 27.032C140.681 27.032 140.001 26.9609 139.322 26.8185C138.642 26.676 137.988 26.472 137.36 26.2065C136.732 25.9411 136.155 25.6206 135.629 25.245L136.802 22.9334C136.918 23.05 137.123 23.2021 137.418 23.3897C137.713 23.5777 138.072 23.7653 138.495 23.9532C138.918 24.1409 139.38 24.2997 139.88 24.4291C140.38 24.5585 140.886 24.6234 141.399 24.6234C142.117 24.6234 142.662 24.5002 143.034 24.2575C143.406 24.0148 143.592 23.6683 143.592 23.2213C143.592 22.807 143.444 22.4865 143.149 22.2534C142.854 22.0202 142.444 21.8195 141.918 21.6447C141.393 21.4699 140.771 21.279 140.053 21.075C139.194 20.8288 138.476 20.5537 137.899 20.2527C137.322 19.9482 136.892 19.5662 136.61 19.1C136.328 18.637 136.187 18.0574 136.187 17.3581C136.187 16.4193 136.408 15.6293 136.851 14.9915C137.293 14.3505 137.892 13.8679 138.649 13.5378C139.405 13.2108 140.245 13.0457 141.168 13.0457C141.809 13.0457 142.415 13.117 142.986 13.2593C143.557 13.4017 144.092 13.5897 144.592 13.8228C145.092 14.0559 145.541 14.3082 145.938 14.5803L144.765 16.7559ZM159.997 24.5844V26.935H150.515V13.1427H159.824V15.4933H153.169V18.815H158.92V20.9908H153.169V24.5844H159.997Z" fill="#333333"></path></g><defs><clipPath id="clip0_81_470"><rect width="160" height="40" fill="white"></rect></clipPath></defs></svg> 